<?xml version="1.0" encoding="utf-8"?>
<!-- Generated by IcoMoon.io -->
<!DOCTYPE svg PUBLIC "-//W3C//DTD SVG 1.1//EN" "http://www.w3.org/Graphics/SVG/1.1/DTD/svg11.dtd">
<svg version="1.1" xmlns="http://www.w3.org/2000/svg" xmlns:xlink="http://www.w3.org/1999/xlink" width="16" height="16" viewBox="0 0 16 16">
<path fill="#2C3138" d="M9.143 13.393q-0.375-2.152-1.25-4.446h-0.018l-0.018 0.009q-0.143 0.054-0.384 0.147t-0.902 0.438-1.223 0.732-1.17 1.022-0.92 1.321l-0.134-0.098q1.643 1.339 3.732 1.339 1.179 0 2.286-0.464zM7.491 7.973q-0.188-0.438-0.473-0.991-2.777 0.83-6.009 0.83-0.009 0.063-0.009 0.188 0 1.107 0.393 2.112t1.107 1.799q0.446-0.795 1.103-1.487t1.272-1.112 1.165-0.723 0.888-0.429l0.33-0.116q0.036-0.009 0.116-0.031t0.116-0.040zM6.536 6.080q-1.071-1.902-2.179-3.375-1.232 0.58-2.089 1.661t-1.143 2.429q2.696 0 5.411-0.714zM12.643 8.929q-1.875-0.536-3.652-0.259 0.777 2.134 1.143 4.188 0.991-0.67 1.652-1.692t0.857-2.237zM5.455 2.313q-0.009 0-0.018 0.009 0.009-0.009 0.018-0.009zM10.723 3.607q-1.652-1.464-3.866-1.464-0.679 0-1.384 0.17 1.17 1.518 2.196 3.411 0.616-0.232 1.161-0.54t0.862-0.549 0.585-0.509 0.335-0.362zM12.714 7.938q-0.027-2.071-1.33-3.661l-0.009 0.009q-0.080 0.107-0.17 0.219t-0.388 0.397-0.634 0.54-0.893 0.58-1.174 0.576q0.223 0.473 0.393 0.848 0.018 0.054 0.058 0.156t0.067 0.147q0.321-0.045 0.665-0.063t0.656-0.018 0.616 0.013 0.571 0.036 0.504 0.049 0.429 0.058 0.326 0.054 0.223 0.040zM13.714 8q0 1.866-0.92 3.442t-2.496 2.496-3.442 0.92-3.442-0.92-2.496-2.496-0.92-3.442 0.92-3.442 2.496-2.496 3.442-0.92 3.442 0.92 2.496 2.496 0.92 3.442z"></path>
</svg>
