<?xml version="1.0" encoding="utf-8"?>
<!-- Generated by IcoMoon.io -->
<!DOCTYPE svg PUBLIC "-//W3C//DTD SVG 1.1//EN" "http://www.w3.org/Graphics/SVG/1.1/DTD/svg11.dtd">
<svg version="1.1" xmlns="http://www.w3.org/2000/svg" xmlns:xlink="http://www.w3.org/1999/xlink" width="16" height="16" viewBox="0 0 16 16">
<path fill="#2C3138" d="M14.857 13.429v-6.857q-0.286 0.321-0.616 0.589-2.393 1.839-3.804 3.018-0.455 0.384-0.741 0.598t-0.772 0.433-0.915 0.219h-0.018q-0.429 0-0.915-0.219t-0.772-0.433-0.741-0.598q-1.411-1.179-3.804-3.018-0.33-0.268-0.616-0.589v6.857q0 0.116 0.085 0.201t0.201 0.085h13.143q0.116 0 0.201-0.085t0.085-0.201zM14.857 4.045v-0.219t-0.004-0.116-0.027-0.112-0.049-0.080-0.080-0.067-0.125-0.022h-13.143q-0.116 0-0.201 0.085t-0.085 0.201q0 1.5 1.313 2.536 1.723 1.357 3.58 2.83 0.054 0.045 0.313 0.263t0.411 0.335 0.397 0.281 0.451 0.246 0.384 0.080h0.018q0.179 0 0.384-0.080t0.451-0.246 0.397-0.281 0.411-0.335 0.313-0.263q1.857-1.473 3.58-2.83 0.482-0.384 0.897-1.031t0.415-1.174zM16 3.714v9.714q0 0.589-0.42 1.009t-1.009 0.42h-13.143q-0.589 0-1.009-0.42t-0.42-1.009v-9.714q0-0.589 0.42-1.009t1.009-0.42h13.143q0.589 0 1.009 0.42t0.42 1.009z"></path>
</svg>
