<?xml version="1.0" encoding="UTF-8" standalone="no"?>
<svg width="14px" height="17px" viewBox="0 0 14 17" version="1.1" xmlns="http://www.w3.org/2000/svg" xmlns:xlink="http://www.w3.org/1999/xlink" xmlns:sketch="http://www.bohemiancoding.com/sketch/ns">
    <title>Shape-2</title>
    <desc>Created with Sketch.</desc>
    <defs></defs>
    <g id="Quoting" stroke="none" stroke-width="1" fill="none" fill-rule="evenodd" sketch:type="MSPage">
        <g id="cd-icon-arrow" sketch:type="MSLayerGroup" transform="translate(-126.000000, -73.000000)" fill="#A2B5C1">
            <g id="Oval-13-+-arrow-left" transform="translate(117.000000, 66.000000)" sketch:type="MSShapeGroup">
                <path d="M17.7128003,9 C17.9403897,9 18.1323604,9.07973954 18.2887124,9.23921862 L23.9548549,15.0186839 C24.1112068,15.178163 24.1893829,15.3739731 24.1893829,15.6061142 C24.1893829,15.8382554 24.1112068,16.0340655 23.9548549,16.1935446 L18.2887124,21.9730099 C18.1323604,22.132489 17.9403897,22.2122285 17.7128003,22.2122285 C17.4805852,22.2122285 17.2876893,22.1339045 17.1341127,21.9772564 C16.9805362,21.8206083 16.9037479,21.6238545 16.9037479,21.386995 C16.9037479,21.1548539 16.9819239,20.9590438 17.1382759,20.7995647 L21.4263926,16.4327632 L8.80906044,16.4327632 C8.58517172,16.4327632 8.39458876,16.35208 8.23731156,16.1907136 C8.08003436,16.0293472 8.00093318,15.8349526 8.00000802,15.6075297 C7.99908286,15.3801069 8.07818404,15.1857123 8.23731156,15.0243459 C8.39643908,14.8629795 8.58702204,14.7822963 8.80906044,14.7822963 L21.4263926,14.7822963 L17.1382759,10.4154948 C16.9819239,10.2560157 16.9037479,10.0602056 16.9037479,9.82806446 C16.9037479,9.591205 16.9805362,9.39445122 17.1341127,9.23780313 C17.2876893,9.08115504 17.4805852,9.00283099 17.7128003,9.00283099 L17.7128003,9 L17.7128003,9 Z" id="Shape-2" transform="translate(16.094691, 15.606114) scale(-1, -1) rotate(-90.000000) translate(-16.094691, -15.606114) "></path>
            </g>
        </g>
    </g>
</svg>